<svg width="48" height="48" viewBox="0 0 128 128" xmlns="http://www.w3.org/2000/svg" fill="none" stroke="currentColor" stroke-width="4" stroke-linecap="round" stroke-linejoin="round">

  <!-- Book Spine -->
  <rect x="56" y="4" width="16" height="120" fill="#A0A0A0"></rect>

  <!-- Left Page -->
  <path d="M4 4 Q32 0 64 4 L64 124 Q32 128 4 124 Z" fill="#FFFFFF"></path>

  <!-- Right Page -->
  <path d="M124 4 Q96 0 64 4 L64 124 Q96 128 124 124 Z" fill="#FFFFFF"></path>

  <!-- Book Cover Shadows -->
  <path d="M4 4 Q32 0 64 4 L64 124 Q32 128 4 124 Z" fill="none" stroke="#808080" stroke-width="2" opacity="0.5"></path>
  <path d="M124 4 Q96 0 64 4 L64 124 Q96 128 124 124 Z" fill="none" stroke="#808080" stroke-width="2" opacity="0.5"></path>

  <!-- Text Lines on Left Page -->
  <line x1="12" y1="20" x2="60" y2="20" stroke="#000000" stroke-width="1"></line>
  <line x1="12" y1="40" x2="60" y2="40" stroke="#000000" stroke-width="1"></line>
  <line x1="12" y1="60" x2="60" y2="60" stroke="#000000" stroke-width="1"></line>

  <!-- Text Lines on Right Page -->
  <line x1="68" y1="20" x2="116" y2="20" stroke="#000000" stroke-width="1"></line>
  <line x1="68" y1="40" x2="116" y2="40" stroke="#000000" stroke-width="1"></line>
  <line x1="68" y1="60" x2="116" y2="60" stroke="#000000" stroke-width="1"></line>

  <!-- An image box on the left page -->
  <rect x="13" y="80" width="44" height="32" fill="#FFFFFF" stroke="#000000" stroke-width="1"></rect>

  <!-- Down arrow button -->
  <circle cx="96" cy="88" r="24" fill="white" stroke="currentColor" stroke-width="2"></circle>
  <path d="M96 104 L88 88 L104 88 Z" fill="currentColor"></path>

  <!-- Up arrow button -->
  <circle cx="96" cy="40" r="24" fill="white" stroke="currentColor" stroke-width="2"></circle>
  <path d="M96 24 L88 40 L104 40 Z" fill="currentColor"></path>

</svg>
