<svg width="128" height="128" viewBox="0 0 128 128" xmlns="http://www.w3.org/2000/svg" fill="none" stroke="currentColor" stroke-width="4" stroke-linecap="round" stroke-linejoin="round">

  <!-- Book Spine -->
  <rect x="56" y="4" width="16" height="120" fill="#A0A0A0"/>

  <!-- Left Page -->
  <path d="M4 4 Q32 0 64 4 L64 124 Q32 128 4 124 Z" fill="#FFFFFF"/>

  <!-- Right Page -->
  <path d="M124 4 Q96 0 64 4 L64 124 Q96 128 124 124 Z" fill="#FFFFFF"/>

  <!-- Book Cover Shadows -->
  <path d="M4 4 Q32 0 64 4 L64 124 Q32 128 4 124 Z" fill="none" stroke="#808080" stroke-width="2" opacity="0.5"/>
  <path d="M124 4 Q96 0 64 4 L64 124 Q96 128 124 124 Z" fill="none" stroke="#808080" stroke-width="2" opacity="0.5"/>

  <!-- Text Lines on Left Page -->
  <line x1="12" y1="20" x2="60" y2="20" stroke="#000000" stroke-width="1"/>
  <line x1="12" y1="40" x2="60" y2="40" stroke="#000000" stroke-width="1"/>
  <line x1="12" y1="60" x2="60" y2="60" stroke="#000000" stroke-width="1"/>

  <!-- Text Lines on Right Page -->
  <line x1="68" y1="20" x2="116" y2="20" stroke="#000000" stroke-width="1"/>
  <line x1="68" y1="40" x2="116" y2="40" stroke="#000000" stroke-width="1"/>
  <line x1="68" y1="60" x2="116" y2="60" stroke="#000000" stroke-width="1"/>

  <!-- An image box on the left page -->
  <rect x="13" y="80" width="44" height="32" fill="#FFFFFF" stroke="#000000" stroke-width="1"/>

  <!-- Up Arrow Button -->
  <circle cx="104" cy="80" r="16" fill="white" stroke="currentColor" stroke-width="2" />
  <path d="M104 92 L100 80 L108 80 Z" fill="currentColor" />

  <!-- Down Arrow Button -->
  <circle cx="104" cy="48" r="16" fill="white" stroke="currentColor" stroke-width="2" />
  <path d="M104 44 L100 56 L108 56 Z" fill="currentColor" />
</svg>
